<?xml version="1.0" encoding="UTF-8"?><svg xmlns="http://www.w3.org/2000/svg" xmlns:xlink="http://www.w3.org/1999/xlink" data-name="Layer 1" height="413.4" preserveAspectRatio="xMidYMid meet" version="1.0" viewBox="245.6 73.4 377.6 413.4" width="377.6" zoomAndPan="magnify"><g id="change1_1"><path d="M622.78,201a7.67,7.67,0,0,0-.21-1.74c-.13-14.35-.33-26-.61-33.4-1.08-28-16.64-43.19-29.5-51a79.68,79.68,0,0,0-21.4-9V81.27a7.5,7.5,0,1,0-15,0v23.22H509.15v-20a7.5,7.5,0,0,0-15,0v20H450v-20a7.5,7.5,0,0,0-15,0v20H389v-20a7.5,7.5,0,0,0-15,0v20H327.08V81.27a7.5,7.5,0,1,0-15,0V105c-29.7,2.81-45.91,16.23-54.46,27.69a62.61,62.61,0,0,0-12,29v38.67c0,.18,0,.35,0,.53s0,.36,0,.53l0,228.38.07.53a73.66,73.66,0,0,0,10.69,27c8.14,12.53,23.89,27.73,52.67,29,8.15.35,20.5.5,35.48.5,75.47,0,217.59-3.75,224.76-3.94h.44l.43-.06c16.25-2.35,48-15.42,51.78-48.06L622,434c0-1.83,1.26-153.17.63-231.4A7.27,7.27,0,0,0,622.78,201Zm-310.7-80.85v24a7.5,7.5,0,0,0,15,0V119.49H374V144.1a7.5,7.5,0,1,0,15,0V119.49h46V141.8a7.5,7.5,0,0,0,15,0V119.49h44.16V144.1a7.5,7.5,0,1,0,15,0V119.49h46.91v27.36a7.5,7.5,0,1,0,15,0V121.36c12.39,3.91,34.76,15.09,35.91,45,.24,6.27.42,15.6.54,27.06H260.59v-30.6C261.07,159,266.66,125.09,312.08,120.11ZM607,433.45c-3.49,27.64-34.58,33.82-38.6,34.5-11.41.3-211.16,5.48-258.7,3.43-40.59-1.75-48.26-37.92-49.08-42.64V208.46H607.64C608.15,285.74,607,424.66,607,433.45Z"/></g><g id="change1_2"><path d="M327.68,292.39h49.85V241.16H327.68Zm15-36.23h19.85v21.23H342.68Z"/></g><g id="change1_3"><path d="M408.39,291.58h50.42V241.16H408.39Zm15-35.42h20.42v20.42H423.39Z"/></g><g id="change1_4"><path d="M538.27,241.16H489.56v50.31h48.71Zm-15,35.31H504.56V256.16h18.71Z"/></g><g id="change1_5"><path d="M489.56,362.21H539.3V312.47H489.56Zm15-34.74H524.3v19.74H504.56Z"/></g><g id="change1_6"><path d="M489.56,433.06h49.05V384H489.56Zm15-34.05h19.05v19.05H504.56Z"/></g><g id="change1_7"><path d="M408.39,434.21H457.9V384.7H408.39Zm15-34.51H442.9v19.51H423.39Z"/></g><g id="change1_8"><path d="M408.39,362.21h49.74V312.47H408.39Zm15-34.74h19.74v19.74H423.39Z"/></g><g id="change1_9"><path d="M328.82,362.21h47.79V312.47H328.82Zm15-34.74h17.79v19.74H343.82Z"/></g><g id="change1_10"><path d="M328.82,431.8h47.79V384H328.82Zm15-32.79h17.79V416.8H343.82Z"/></g></svg>