<?xml version="1.0" encoding="UTF-8"?><svg xmlns="http://www.w3.org/2000/svg" xmlns:xlink="http://www.w3.org/1999/xlink" height="256.0" preserveAspectRatio="xMidYMid meet" version="1.0" viewBox="-0.0 -0.0 221.0 256.0" width="221.0" zoomAndPan="magnify">
 <g id="change1_4"><path d="m110.37 32.903l-85.463-30.163v186.01l85.464-27.65v-128.2" fill="#040606"/></g>
 <g fill="#fff" id="change2_1">
  <path d="m108.32 32.81l88.737-30.162v186.01l-88.737-27.65v-128.2" fill="inherit"/>
  <path d="m2.745 221.31l105.58-35.19v-153.33l-105.58 35.188v153.34" fill="inherit"/>
 </g>
 <g fill="#040606">
  <g id="change1_2"><path d="m156.43 223.63l14.963 24.617 7.9-22.867-22.853-1.75m-117.8-137.99c-0.56-0.55 0.73 4.5 2.527 6.317 3.186 3.214 5.675 3.628 7 3.682 2.932 0.117 6.55-0.73 8.7-1.63 2.08-0.887 5.722-2.747 7.1-5.46 0.292-0.58 1.1-1.554 0.6-3.96-0.38-1.85-1.56-2.5-2.995-2.396-1.437 0.097-5.786 1.257-7.9 1.904l-8.33 2.368c-1.885 0.4-6.04-0.2-6.702-0.823m53.257 60.376c-0.832-0.302-18.045-7.433-20.485-8.6-1.997-0.96-6.892-3.03-9.196-3.97 6.488-10.004 10.584-17.553 11.13-18.703l8.037-16.37c0.156-0.838 0.35-3.935 0.2-4.67-0.15-0.75-2.67 0.692-6.088 1.85-3.424 1.155-9.93 5.387-12.445 5.917-2.522 0.526-10.584 3.58-14.7 4.95s-11.928 3.75-15.138 4.617-6.02 0.936-7.818 1.48 0.24 2.518 0.717 3.273c0.472 0.755 2.172 2.606 4.15 3.123s5.25 0.312 6.74-0.03c1.5-0.346 4.07-1.607 4.417-2.158 0.35-0.56-0.18-2.284 0.4-2.806 0.595-0.516 8.45-2.352 11.417-3.248 2.966-0.912 14.32-4.822 15.86-4.623-0.487 1.617-9.62 19.706-12.56 25.103s-20.033 29.135-23.67 33.32c-2.762 3.18-9.454 11.32-11.772 13.155 0.585 0.16 4.73-0.194 5.484-0.662 4.705-2.898 12.542-12.654 15.065-15.625 7.5-8.796 14.1-18.036 19.316-25.965h0.005c1.018 0.424 9.25 7.13 11.397 8.617s10.623 6.214 12.46 6.998c1.836 0.794 8.893 4.048 9.2 2.947 0.297-1.1-1.276-7.603-2.1-7.92" fill="inherit"/></g>
  <g fill-rule="evenodd" id="change1_1">
   <path d="m52.136 235.66c1.65 1.008 3.207 1.833 4.948 2.657 3.482 1.74 7.422 3.574 11.178 4.948a123.11 123.11 0 0 0 15.393 4.673c2.84 0.64 5.956 1.2 8.98 1.65 0.275 0 8.43 1.008 10.08 1.008h8.246c3.207-0.275 6.23-0.458 9.438-0.916 2.565-0.366 5.406-0.825 8.155-1.466 2.016-0.458 4.123-0.916 6.14-1.558 1.924-0.55 4.123-1.283 6.23-2.016 1.375-0.458 2.84-1.1 4.307-1.65a88.52 88.52 0 0 1 4.032 -1.741c1.65-0.733 3.573-1.74 5.406-2.657 1.466-0.733 3.115-1.65 4.673-2.566 1.2-0.64 3.94-2.75 5.406-2.75 1.65 0 2.75 1.466 2.75 2.75 0 2.657-3.573 3.482-5.223 4.673-1.74 1.2-3.848 2.107-5.68 3.115-3.665 1.924-7.422 3.573-10.995 4.948-4.673 1.74-9.804 3.4-14.386 4.5-1.74 0.366-3.482 0.825-5.223 1.1-0.916 0.183-10.445 1.65-13.103 1.65h-12.1c-3.207-0.275-6.597-0.64-9.804-1.1-2.84-0.458-5.864-1.008-8.705-1.65-2.2-0.458-4.58-1.1-6.7-1.74-3.665-1.008-7.24-2.3-10.72-3.665-6.322-2.382-12.92-5.498-19.15-9.62-1.1-0.733-1.2-1.466-1.2-2.3 0-1.374 1.008-2.657 2.657-2.657 1.466 0 4.398 2.107 4.948 2.382m58.924-203.22v153.93a3.13 3.13 0 0 1 -0.64 1.374c-0.183 0.275-0.55 0.64-0.825 0.733-2.3 0.916-105.46 35.55-106.84 35.55-1.1 0-2.107-0.733-2.657-1.924 0-0.092-0.092-0.183-0.092-0.366v-154.02c0.183-0.457 0.275-1.1 0.64-1.466 0.733-1.007 2.016-1.2 2.84-1.466 1.56-0.55 103.17-34.633 104.64-34.633 0.916 0 2.932 0.642 2.932 2.3zm-5.6 151.64l-99.85 33.26v-147.33l99.874-33.26v147.34" fill="inherit"/>
   <path d="m199.84 2.926v185.36c-0.09 2.107-1.557 3.024-2.932 3.024-1.192 0-9.804-2.932-11.27-3.4l-34.635-10.72-7.697-2.474a191.73 191.73 0 0 1 -6.78 -2.107l-29.595-9.346c-0.366-0.092-1.283-1.374-1.283-1.65v-129.46c0.183-0.457 0.366-1.007 0.825-1.373 0.733-0.825 32.16-11.27 44.53-15.394 3.3-1.192 44.622-15.394 45.905-15.394 1.65 0 2.932 1.192 2.932 2.932zm-5.6 181.88l-83.105-25.84v-124.16l83.11-28.21v178.22" fill="inherit"/>
  </g>
  <g id="change1_3"><path d="m220.93 223.63l-111.02-35.387 0.465-154.05 110.56 35.2v154.25" fill="inherit"/></g>
 </g>
 <g id="change2_2"><path d="m158.42 78.17l14.304 4.333 26.06 93.92-14.692-4.458-5.28-19.28-30.363-9.203-6.53 15.707-14.697-4.46 31.197-76.56zm6.54 24.864l-10.897 26.34 20.034 6.073-9.137-32.412" fill="#fff" fill-rule="evenodd"/></g>
</svg>